<svg width="28" height="28" viewBox="0 0 28 28" fill="none" xmlns="http://www.w3.org/2000/svg">
<path d="M15.0404 0.458181C14.9092 0.313869 14.7493 0.198564 14.571 0.119661C14.3926 0.0407585 14.1998 0 14.0047 0C13.8097 0 13.6169 0.0407585 13.4385 0.119661C13.2602 0.198564 13.1003 0.313869 12.9691 0.458181L0.373406 14.453C0.187672 14.6533 0.0645933 14.9035 0.019342 15.1728C-0.0259092 15.4422 0.00864462 15.7189 0.118744 15.9688C0.228844 16.2188 0.409677 16.431 0.638953 16.5795C0.86823 16.7279 1.13593 16.806 1.40905 16.8041H4.2081V26.6005C4.2081 26.9717 4.35554 27.3276 4.61801 27.5901C4.88047 27.8526 5.23644 28 5.60762 28H22.4019C22.7731 28 23.129 27.8526 23.3915 27.5901C23.6539 27.3276 23.8014 26.9717 23.8014 26.6005V16.8041H26.6004C26.9716 16.8041 27.3276 16.6567 27.59 16.3942C27.8525 16.1318 28 15.7758 28 15.4047C28.0025 15.053 27.8726 14.7132 27.6361 14.453L15.0404 0.458181Z" fill="#171717"/>
<path d="M14.4 16.0603C13.9453 16.0603 13.5093 15.8812 13.1878 15.5624C12.8663 15.2436 12.6857 14.8112 12.6857 14.3603C12.6857 13.9095 12.8663 13.4771 13.1878 13.1583C13.5093 12.8394 13.9453 12.6603 14.4 12.6603C14.8546 12.6603 15.2907 12.8394 15.6122 13.1583C15.9336 13.4771 16.1143 13.9095 16.1143 14.3603C16.1143 14.5836 16.0699 14.8047 15.9838 15.0109C15.8976 15.2172 15.7713 15.4046 15.6122 15.5624C15.453 15.7203 15.264 15.8455 15.056 15.9309C14.848 16.0164 14.6251 16.0603 14.4 16.0603ZM14.4 9.60034C13.1269 9.60034 11.906 10.1018 11.0059 10.9945C10.1057 11.8872 9.59998 13.0979 9.59998 14.3603C9.59998 17.9303 14.4 23.2003 14.4 23.2003C14.4 23.2003 19.2 17.9303 19.2 14.3603C19.2 13.0979 18.6943 11.8872 17.7941 10.9945C16.8939 10.1018 15.673 9.60034 14.4 9.60034Z" fill="white"/>
</svg>
