<svg width="34" height="40" viewBox="0 0 34 40" fill="none" xmlns="http://www.w3.org/2000/svg">
<path d="M16.5 9C14.1926 9 11.9797 9.9166 10.3482 11.5482C8.71659 13.1797 7.79999 15.3926 7.79999 17.7C7.79999 19.7576 8.23789 21.1046 9.43124 22.5938L16.5 30.75L23.5687 22.5938C24.7621 21.1046 25.2 19.7576 25.2 17.7C25.2 15.3926 24.2834 13.1797 22.6518 11.5482C21.0203 9.9166 18.8074 9 16.5 9Z" stroke="white" stroke-width="3" stroke-linecap="round" stroke-linejoin="round"/>
<path d="M6.35 28.0576C3.66605 29.1117 2 30.5777 2 32.2002C2 35.4047 8.49165 38.0002 16.5 38.0002C24.5084 38.0002 31 35.4047 31 32.2002C31 30.5777 29.334 29.1117 26.65 28.0576" stroke="white" stroke-width="3" stroke-linecap="round" stroke-linejoin="round"/>
<path d="M16.5 19.15C17.3008 19.15 17.95 18.5008 17.95 17.7C17.95 16.8992 17.3008 16.25 16.5 16.25C15.6992 16.25 15.05 16.8992 15.05 17.7C15.05 18.5008 15.6992 19.15 16.5 19.15Z" stroke="white" stroke-width="3" stroke-linecap="round" stroke-linejoin="round"/>
<path d="M16.3621 11.4779L17.246 10.594L16.3621 11.4779C16.7541 11.8698 17.2857 12.09 17.84 12.09H21.91V16.16C21.91 16.7143 22.1302 17.2459 22.5221 17.6379C22.9141 18.0298 23.4457 18.25 24 18.25C24.5543 18.25 25.0859 18.0298 25.4779 17.6379C25.8698 17.2459 26.09 16.7143 26.09 16.16V12.09H30.16C30.7143 12.09 31.2459 11.8698 31.6379 11.4779C32.0298 11.0859 32.25 10.5543 32.25 10C32.25 9.4457 32.0298 8.9141 31.6379 8.52215C31.2459 8.1302 30.7143 7.91 30.16 7.91H26.09V3.84C26.09 3.28569 25.8698 2.7541 25.4779 2.36215L24.594 3.24603L25.4779 2.36215C25.0859 1.9702 24.5543 1.75 24 1.75C23.4457 1.75 22.9141 1.9702 22.5221 2.36215L23.3946 3.23455L22.5221 2.36215C22.1302 2.7541 21.91 3.2857 21.91 3.84V7.91H17.84C17.2857 7.91 16.7541 8.1302 16.3621 8.52215L17.246 9.40603L16.3621 8.52215C15.9702 8.9141 15.75 9.4457 15.75 10C15.75 10.5543 15.9702 11.0859 16.3621 11.4779Z" fill="white" stroke="#3275CC" stroke-width="2.5"/>
</svg>
