<svg width="33" height="33" viewBox="0 0 33 33" fill="none" xmlns="http://www.w3.org/2000/svg">
<path d="M16.5 2C14.1926 2 11.9797 2.9166 10.3482 4.54817C8.71659 6.17974 7.79999 8.39262 7.79999 10.7C7.79999 12.7576 8.23789 14.1046 9.43124 15.5938L16.5 23.75L23.5687 15.5938C24.7621 14.1046 25.2 12.7576 25.2 10.7C25.2 8.39262 24.2834 6.17974 22.6518 4.54817C21.0203 2.9166 18.8074 2 16.5 2Z" stroke="white" stroke-width="3" stroke-linecap="round" stroke-linejoin="round"/>
<path d="M6.35 21.0576C3.66605 22.1118 2 23.5777 2 25.2003C2 28.4048 8.49165 31.0003 16.5 31.0003C24.5084 31.0003 31 28.4048 31 25.2003C31 23.5777 29.334 22.1118 26.65 21.0576" stroke="white" stroke-width="3" stroke-linecap="round" stroke-linejoin="round"/>
<path d="M16.5 12.15C17.3008 12.15 17.95 11.5008 17.95 10.7C17.95 9.89919 17.3008 9.25 16.5 9.25C15.6992 9.25 15.05 9.89919 15.05 10.7C15.05 11.5008 15.6992 12.15 16.5 12.15Z" stroke="white" stroke-width="3" stroke-linecap="round" stroke-linejoin="round"/>
</svg>
