<svg width="16" height="16" viewBox="0 0 16 16" fill="none" xmlns="http://www.w3.org/2000/svg">
<g clip-path="url(#clip0_155_2129)">
<path d="M5 16V10.7C4.4 10.4 4 9.69995 4 8.99995V4.99995C4 4.29995 4.4 3.69995 5 3.29995V2.99995C5 1.89995 4.1 0.99995 3 0.99995C1.9 0.99995 1 1.89995 1 2.99995C1 4.09995 1.9 4.99995 3 4.99995H1C0.5 4.99995 0 5.49995 0 5.99995V9.99995C0 10.5 0.5 11 1 11V16H5ZM15 4.99995H13C14.1 4.99995 15 4.09995 15 2.99995C15 1.89995 14.1 0.99995 13 0.99995C11.9 0.99995 11 1.89995 11 2.99995V3.29995C11.6 3.69995 12 4.29995 12 4.99995V8.99995C12 9.69995 11.6 10.4 11 10.7V16H15V11C15.5 11 16 10.5 16 9.99995V5.99995C16 5.49995 15.5 4.99995 15 4.99995ZM10 1.99995C10.006 2.26629 9.95877 2.53115 9.86103 2.77897C9.76328 3.0268 9.61701 3.2526 9.4308 3.44312C9.24458 3.63364 9.02218 3.78504 8.77666 3.88842C8.53113 3.99181 8.26742 4.0451 8.00101 4.04517C7.7346 4.04523 7.47087 3.99207 7.22529 3.88881C6.97971 3.78555 6.75723 3.63426 6.57093 3.44384C6.38462 3.25341 6.23823 3.02768 6.14036 2.77991C6.04249 2.53213 5.99511 2.26729 6.001 2.00095C6.01256 1.47839 6.22822 0.981116 6.60184 0.61558C6.97545 0.250045 7.47732 0.0452968 8.00001 0.0451661C8.5227 0.0450354 9.02467 0.249532 9.39847 0.614881C9.77227 0.980229 9.98818 1.47739 10 1.99995Z" fill="#3275CC"/>
<path d="M10 4H6C5.5 4 5 4.5 5 5V9C5 9.5 5.5 10 6 10V16H10V10C10.5 10 11 9.5 11 9V5C11 4.5 10.5 4 10 4Z" fill="#3275CC"/>
</g>
<defs>
<clipPath id="clip0_155_2129">
<rect width="16" height="16" fill="white"/>
</clipPath>
</defs>
</svg>
