<svg width="28" height="31" viewBox="0 0 28 31" fill="none" xmlns="http://www.w3.org/2000/svg">
<mask id="path-1-outside-1_1_796" maskUnits="userSpaceOnUse" x="0" y="0" width="28" height="31" fill="black">
<rect fill="white" width="28" height="31"/>
<path d="M5.00561 30L6.97199 25.5775C6.63212 25.3117 6.30439 25.0521 5.9888 24.7988C5.67321 24.5456 5.36975 24.2735 5.07844 23.9825C4.88423 24.055 4.69584 24.1096 4.51328 24.1463C4.33072 24.1831 4.13069 24.201 3.91317 24.2C3.11205 24.2 2.426 23.9158 1.85502 23.3474C1.28404 22.779 0.999036 22.0965 1.00001 21.3C1.00001 20.8167 1.10342 20.3754 1.31026 19.9761C1.51709 19.5769 1.8021 19.2449 2.16527 18.98C1.97106 18.4242 1.83754 17.862 1.76471 17.2936C1.69188 16.7252 1.65547 16.1274 1.65547 15.5C1.65547 14.8717 1.69188 14.2733 1.76471 13.7049C1.83754 13.1365 1.97106 12.5749 2.16527 12.02C1.80113 11.7542 1.51564 11.4216 1.3088 11.0224C1.10197 10.6232 0.999036 10.1824 1.00001 9.7C1.00001 8.9025 1.2855 8.21955 1.85648 7.65115C2.42746 7.08275 3.11302 6.79903 3.91317 6.8C4.13166 6.8 4.33218 6.81837 4.51474 6.8551C4.6973 6.89183 4.8852 6.94597 5.07844 7.0175C5.87956 6.1475 6.79623 5.4225 7.82846 4.8425C8.8607 4.2625 9.95896 3.8275 11.1233 3.5375C11.2446 2.8125 11.5787 2.20833 12.1254 1.725C12.6721 1.24167 13.3091 1 14.0364 1C14.7647 1 15.4022 1.24795 15.9489 1.74385C16.4956 2.23975 16.8292 2.83763 16.9496 3.5375C18.1148 3.8275 19.2136 4.2567 20.2458 4.8251C21.2781 5.3935 22.1942 6.10013 22.9944 6.945C23.1886 6.8725 23.3707 6.81837 23.5406 6.7826C23.7106 6.74683 23.8926 6.72847 24.0868 6.7275C24.888 6.7275 25.574 7.0117 26.145 7.5801C26.716 8.1485 27.001 8.83097 27 9.6275C27 10.1108 26.9029 10.54 26.7087 10.9151C26.5145 11.2902 26.2474 11.6101 25.9076 11.875C26.1018 12.455 26.2353 13.0471 26.3081 13.6512C26.381 14.2554 26.4174 14.8717 26.4174 15.5C26.4174 16.1283 26.381 16.7388 26.3081 17.3313C26.2353 17.9239 26.1018 18.4976 25.9076 19.0525C26.2474 19.3183 26.5145 19.6388 26.7087 20.0138C26.9029 20.3889 27 20.8176 27 21.3C27 22.0975 26.7145 22.7804 26.1435 23.3488C25.5725 23.9172 24.8875 24.201 24.0883 24.2C23.8941 24.2 23.712 24.1816 23.5421 24.1449C23.3721 24.1082 23.1901 24.054 22.9959 23.9825C22.7045 24.2725 22.4069 24.5562 22.103 24.8336C21.799 25.1111 21.4655 25.3832 21.1023 25.65L22.9959 30H20.3012L18.9174 26.81C18.5776 26.955 18.2498 27.0821 17.9342 27.1913C17.6186 27.3006 17.2909 27.391 16.951 27.4625C16.8297 28.1633 16.4956 28.7617 15.9489 29.2576C15.4022 29.7535 14.7647 30.001 14.0364 30C13.3081 30 12.6706 29.7583 12.1239 29.275C11.5772 28.7917 11.2437 28.1875 11.1233 27.4625C10.7591 27.39 10.4129 27.2991 10.0847 27.1899C9.75649 27.0807 9.42294 26.954 9.08404 26.81L7.70028 30H5.00561ZM7.77311 23.6925L10.0308 18.6175C9.69095 18.1825 9.42391 17.6992 9.2297 17.1675C9.03549 16.6358 8.93838 16.08 8.93838 15.5C8.93838 14.1225 9.44236 12.932 10.4503 11.9286C11.4583 10.9252 12.6532 10.424 14.035 10.425C15.4187 10.425 16.6146 10.9267 17.6225 11.9301C18.6305 12.9335 19.134 14.1235 19.133 15.5C19.133 16.08 19.0296 16.6479 18.8227 17.2037C18.6159 17.7596 18.3309 18.255 17.9677 18.69L20.2254 23.6925C20.4439 23.4992 20.6566 23.3242 20.8634 23.1676C21.0703 23.011 21.2703 22.8235 21.4635 22.605C21.3421 22.4117 21.263 22.2004 21.2261 21.9713C21.1892 21.7422 21.1717 21.5185 21.1737 21.3C21.1737 20.5267 21.4407 19.8621 21.9748 19.3062C22.5089 18.7504 23.1643 18.4483 23.9412 18.4C24.0868 17.9167 24.1961 17.4391 24.2689 16.9674C24.3417 16.4957 24.3782 16.0065 24.3782 15.5C24.3782 14.9925 24.3417 14.4908 24.2689 13.9949C24.1961 13.499 24.0868 13.0099 23.9412 12.5275C23.1643 12.4792 22.5089 12.1771 21.9748 11.6212C21.4407 11.0654 21.1737 10.4008 21.1737 9.6275C21.1737 9.41 21.2043 9.19878 21.2654 8.99385C21.3266 8.78892 21.3931 8.5893 21.465 8.395C20.761 7.69417 19.9841 7.10208 19.1345 6.61875C18.2848 6.13542 17.3866 5.76083 16.4398 5.495C16.1727 5.90583 15.8329 6.22628 15.4202 6.45635C15.0075 6.68642 14.5462 6.80097 14.0364 6.8C13.5266 6.8 13.0654 6.68497 12.6527 6.4549C12.24 6.22483 11.9001 5.90487 11.6331 5.495C10.6377 5.76083 9.71522 6.1417 8.86555 6.6376C8.01588 7.1335 7.23903 7.74347 6.53502 8.4675C6.60785 8.66083 6.67485 8.86045 6.73603 9.06635C6.7972 9.27225 6.82731 9.48347 6.82634 9.7C6.82634 10.4733 6.57143 11.1321 6.06163 11.6763C5.55183 12.2206 4.9085 12.5285 4.13166 12.6C3.986 13.0833 3.87676 13.5609 3.80393 14.0326C3.7311 14.5043 3.69468 14.9935 3.69468 15.5C3.69468 16.0075 3.7311 16.4966 3.80393 16.9674C3.87676 17.4382 3.986 17.9157 4.13166 18.4C4.9085 18.4483 5.55183 18.7504 6.06163 19.3062C6.57143 19.8621 6.82634 20.5267 6.82634 21.3C6.82634 21.5175 6.80837 21.7292 6.77244 21.9351C6.73651 22.141 6.65737 22.3401 6.53502 22.5325C6.72923 22.75 6.92975 22.9496 7.13659 23.1313C7.34342 23.3131 7.5556 23.5001 7.77311 23.6925ZM9.95799 24.925C10.225 25.0458 10.4984 25.1546 10.778 25.2512C11.0577 25.3479 11.3427 25.4325 11.6331 25.505C11.9001 25.0942 12.24 24.7742 12.6527 24.5451C13.0654 24.316 13.5266 24.201 14.0364 24.2C14.5462 24.2 15.0075 24.315 15.4202 24.5451C15.8329 24.7752 16.1727 25.0951 16.4398 25.505C16.7311 25.4325 17.004 25.3479 17.2584 25.2512C17.5128 25.1546 17.774 25.0458 18.042 24.925L15.93 20.2125C15.6387 20.3333 15.3352 20.4242 15.0196 20.4851C14.704 20.546 14.3763 20.576 14.0364 20.575C13.6723 20.575 13.3261 20.5387 12.9979 20.4662C12.6697 20.3937 12.3604 20.285 12.07 20.14L9.95799 24.925ZM14.0364 17.675C14.6191 17.675 15.1289 17.4696 15.5658 17.0587C16.0028 16.6479 16.2213 16.1283 16.2213 15.5C16.2213 14.92 16.0028 14.4125 15.5658 13.9775C15.1289 13.5425 14.6191 13.325 14.0364 13.325C13.4052 13.325 12.8833 13.5425 12.4706 13.9775C12.0579 14.4125 11.8515 14.92 11.8515 15.5C11.8515 16.1283 12.0579 16.6479 12.4706 17.0587C12.8833 17.4696 13.4052 17.675 14.0364 17.675Z"/>
</mask>
<path d="M5.00561 30L6.97199 25.5775C6.63212 25.3117 6.30439 25.0521 5.9888 24.7988C5.67321 24.5456 5.36975 24.2735 5.07844 23.9825C4.88423 24.055 4.69584 24.1096 4.51328 24.1463C4.33072 24.1831 4.13069 24.201 3.91317 24.2C3.11205 24.2 2.426 23.9158 1.85502 23.3474C1.28404 22.779 0.999036 22.0965 1.00001 21.3C1.00001 20.8167 1.10342 20.3754 1.31026 19.9761C1.51709 19.5769 1.8021 19.2449 2.16527 18.98C1.97106 18.4242 1.83754 17.862 1.76471 17.2936C1.69188 16.7252 1.65547 16.1274 1.65547 15.5C1.65547 14.8717 1.69188 14.2733 1.76471 13.7049C1.83754 13.1365 1.97106 12.5749 2.16527 12.02C1.80113 11.7542 1.51564 11.4216 1.3088 11.0224C1.10197 10.6232 0.999036 10.1824 1.00001 9.7C1.00001 8.9025 1.2855 8.21955 1.85648 7.65115C2.42746 7.08275 3.11302 6.79903 3.91317 6.8C4.13166 6.8 4.33218 6.81837 4.51474 6.8551C4.6973 6.89183 4.8852 6.94597 5.07844 7.0175C5.87956 6.1475 6.79623 5.4225 7.82846 4.8425C8.8607 4.2625 9.95896 3.8275 11.1233 3.5375C11.2446 2.8125 11.5787 2.20833 12.1254 1.725C12.6721 1.24167 13.3091 1 14.0364 1C14.7647 1 15.4022 1.24795 15.9489 1.74385C16.4956 2.23975 16.8292 2.83763 16.9496 3.5375C18.1148 3.8275 19.2136 4.2567 20.2458 4.8251C21.2781 5.3935 22.1942 6.10013 22.9944 6.945C23.1886 6.8725 23.3707 6.81837 23.5406 6.7826C23.7106 6.74683 23.8926 6.72847 24.0868 6.7275C24.888 6.7275 25.574 7.0117 26.145 7.5801C26.716 8.1485 27.001 8.83097 27 9.6275C27 10.1108 26.9029 10.54 26.7087 10.9151C26.5145 11.2902 26.2474 11.6101 25.9076 11.875C26.1018 12.455 26.2353 13.0471 26.3081 13.6512C26.381 14.2554 26.4174 14.8717 26.4174 15.5C26.4174 16.1283 26.381 16.7388 26.3081 17.3313C26.2353 17.9239 26.1018 18.4976 25.9076 19.0525C26.2474 19.3183 26.5145 19.6388 26.7087 20.0138C26.9029 20.3889 27 20.8176 27 21.3C27 22.0975 26.7145 22.7804 26.1435 23.3488C25.5725 23.9172 24.8875 24.201 24.0883 24.2C23.8941 24.2 23.712 24.1816 23.5421 24.1449C23.3721 24.1082 23.1901 24.054 22.9959 23.9825C22.7045 24.2725 22.4069 24.5562 22.103 24.8336C21.799 25.1111 21.4655 25.3832 21.1023 25.65L22.9959 30H20.3012L18.9174 26.81C18.5776 26.955 18.2498 27.0821 17.9342 27.1913C17.6186 27.3006 17.2909 27.391 16.951 27.4625C16.8297 28.1633 16.4956 28.7617 15.9489 29.2576C15.4022 29.7535 14.7647 30.001 14.0364 30C13.3081 30 12.6706 29.7583 12.1239 29.275C11.5772 28.7917 11.2437 28.1875 11.1233 27.4625C10.7591 27.39 10.4129 27.2991 10.0847 27.1899C9.75649 27.0807 9.42294 26.954 9.08404 26.81L7.70028 30H5.00561ZM7.77311 23.6925L10.0308 18.6175C9.69095 18.1825 9.42391 17.6992 9.2297 17.1675C9.03549 16.6358 8.93838 16.08 8.93838 15.5C8.93838 14.1225 9.44236 12.932 10.4503 11.9286C11.4583 10.9252 12.6532 10.424 14.035 10.425C15.4187 10.425 16.6146 10.9267 17.6225 11.9301C18.6305 12.9335 19.134 14.1235 19.133 15.5C19.133 16.08 19.0296 16.6479 18.8227 17.2037C18.6159 17.7596 18.3309 18.255 17.9677 18.69L20.2254 23.6925C20.4439 23.4992 20.6566 23.3242 20.8634 23.1676C21.0703 23.011 21.2703 22.8235 21.4635 22.605C21.3421 22.4117 21.263 22.2004 21.2261 21.9713C21.1892 21.7422 21.1717 21.5185 21.1737 21.3C21.1737 20.5267 21.4407 19.8621 21.9748 19.3062C22.5089 18.7504 23.1643 18.4483 23.9412 18.4C24.0868 17.9167 24.1961 17.4391 24.2689 16.9674C24.3417 16.4957 24.3782 16.0065 24.3782 15.5C24.3782 14.9925 24.3417 14.4908 24.2689 13.9949C24.1961 13.499 24.0868 13.0099 23.9412 12.5275C23.1643 12.4792 22.5089 12.1771 21.9748 11.6212C21.4407 11.0654 21.1737 10.4008 21.1737 9.6275C21.1737 9.41 21.2043 9.19878 21.2654 8.99385C21.3266 8.78892 21.3931 8.5893 21.465 8.395C20.761 7.69417 19.9841 7.10208 19.1345 6.61875C18.2848 6.13542 17.3866 5.76083 16.4398 5.495C16.1727 5.90583 15.8329 6.22628 15.4202 6.45635C15.0075 6.68642 14.5462 6.80097 14.0364 6.8C13.5266 6.8 13.0654 6.68497 12.6527 6.4549C12.24 6.22483 11.9001 5.90487 11.6331 5.495C10.6377 5.76083 9.71522 6.1417 8.86555 6.6376C8.01588 7.1335 7.23903 7.74347 6.53502 8.4675C6.60785 8.66083 6.67485 8.86045 6.73603 9.06635C6.7972 9.27225 6.82731 9.48347 6.82634 9.7C6.82634 10.4733 6.57143 11.1321 6.06163 11.6763C5.55183 12.2206 4.9085 12.5285 4.13166 12.6C3.986 13.0833 3.87676 13.5609 3.80393 14.0326C3.7311 14.5043 3.69468 14.9935 3.69468 15.5C3.69468 16.0075 3.7311 16.4966 3.80393 16.9674C3.87676 17.4382 3.986 17.9157 4.13166 18.4C4.9085 18.4483 5.55183 18.7504 6.06163 19.3062C6.57143 19.8621 6.82634 20.5267 6.82634 21.3C6.82634 21.5175 6.80837 21.7292 6.77244 21.9351C6.73651 22.141 6.65737 22.3401 6.53502 22.5325C6.72923 22.75 6.92975 22.9496 7.13659 23.1313C7.34342 23.3131 7.5556 23.5001 7.77311 23.6925ZM9.95799 24.925C10.225 25.0458 10.4984 25.1546 10.778 25.2512C11.0577 25.3479 11.3427 25.4325 11.6331 25.505C11.9001 25.0942 12.24 24.7742 12.6527 24.5451C13.0654 24.316 13.5266 24.201 14.0364 24.2C14.5462 24.2 15.0075 24.315 15.4202 24.5451C15.8329 24.7752 16.1727 25.0951 16.4398 25.505C16.7311 25.4325 17.004 25.3479 17.2584 25.2512C17.5128 25.1546 17.774 25.0458 18.042 24.925L15.93 20.2125C15.6387 20.3333 15.3352 20.4242 15.0196 20.4851C14.704 20.546 14.3763 20.576 14.0364 20.575C13.6723 20.575 13.3261 20.5387 12.9979 20.4662C12.6697 20.3937 12.3604 20.285 12.07 20.14L9.95799 24.925ZM14.0364 17.675C14.6191 17.675 15.1289 17.4696 15.5658 17.0587C16.0028 16.6479 16.2213 16.1283 16.2213 15.5C16.2213 14.92 16.0028 14.4125 15.5658 13.9775C15.1289 13.5425 14.6191 13.325 14.0364 13.325C13.4052 13.325 12.8833 13.5425 12.4706 13.9775C12.0579 14.4125 11.8515 14.92 11.8515 15.5C11.8515 16.1283 12.0579 16.6479 12.4706 17.0587C12.8833 17.4696 13.4052 17.675 14.0364 17.675Z" fill="#171717"/>
<path d="M5.00561 30L6.97199 25.5775C6.63212 25.3117 6.30439 25.0521 5.9888 24.7988C5.67321 24.5456 5.36975 24.2735 5.07844 23.9825C4.88423 24.055 4.69584 24.1096 4.51328 24.1463C4.33072 24.1831 4.13069 24.201 3.91317 24.2C3.11205 24.2 2.426 23.9158 1.85502 23.3474C1.28404 22.779 0.999036 22.0965 1.00001 21.3C1.00001 20.8167 1.10342 20.3754 1.31026 19.9761C1.51709 19.5769 1.8021 19.2449 2.16527 18.98C1.97106 18.4242 1.83754 17.862 1.76471 17.2936C1.69188 16.7252 1.65547 16.1274 1.65547 15.5C1.65547 14.8717 1.69188 14.2733 1.76471 13.7049C1.83754 13.1365 1.97106 12.5749 2.16527 12.02C1.80113 11.7542 1.51564 11.4216 1.3088 11.0224C1.10197 10.6232 0.999036 10.1824 1.00001 9.7C1.00001 8.9025 1.2855 8.21955 1.85648 7.65115C2.42746 7.08275 3.11302 6.79903 3.91317 6.8C4.13166 6.8 4.33218 6.81837 4.51474 6.8551C4.6973 6.89183 4.8852 6.94597 5.07844 7.0175C5.87956 6.1475 6.79623 5.4225 7.82846 4.8425C8.8607 4.2625 9.95896 3.8275 11.1233 3.5375C11.2446 2.8125 11.5787 2.20833 12.1254 1.725C12.6721 1.24167 13.3091 1 14.0364 1C14.7647 1 15.4022 1.24795 15.9489 1.74385C16.4956 2.23975 16.8292 2.83763 16.9496 3.5375C18.1148 3.8275 19.2136 4.2567 20.2458 4.8251C21.2781 5.3935 22.1942 6.10013 22.9944 6.945C23.1886 6.8725 23.3707 6.81837 23.5406 6.7826C23.7106 6.74683 23.8926 6.72847 24.0868 6.7275C24.888 6.7275 25.574 7.0117 26.145 7.5801C26.716 8.1485 27.001 8.83097 27 9.6275C27 10.1108 26.9029 10.54 26.7087 10.9151C26.5145 11.2902 26.2474 11.6101 25.9076 11.875C26.1018 12.455 26.2353 13.0471 26.3081 13.6512C26.381 14.2554 26.4174 14.8717 26.4174 15.5C26.4174 16.1283 26.381 16.7388 26.3081 17.3313C26.2353 17.9239 26.1018 18.4976 25.9076 19.0525C26.2474 19.3183 26.5145 19.6388 26.7087 20.0138C26.9029 20.3889 27 20.8176 27 21.3C27 22.0975 26.7145 22.7804 26.1435 23.3488C25.5725 23.9172 24.8875 24.201 24.0883 24.2C23.8941 24.2 23.712 24.1816 23.5421 24.1449C23.3721 24.1082 23.1901 24.054 22.9959 23.9825C22.7045 24.2725 22.4069 24.5562 22.103 24.8336C21.799 25.1111 21.4655 25.3832 21.1023 25.65L22.9959 30H20.3012L18.9174 26.81C18.5776 26.955 18.2498 27.0821 17.9342 27.1913C17.6186 27.3006 17.2909 27.391 16.951 27.4625C16.8297 28.1633 16.4956 28.7617 15.9489 29.2576C15.4022 29.7535 14.7647 30.001 14.0364 30C13.3081 30 12.6706 29.7583 12.1239 29.275C11.5772 28.7917 11.2437 28.1875 11.1233 27.4625C10.7591 27.39 10.4129 27.2991 10.0847 27.1899C9.75649 27.0807 9.42294 26.954 9.08404 26.81L7.70028 30H5.00561ZM7.77311 23.6925L10.0308 18.6175C9.69095 18.1825 9.42391 17.6992 9.2297 17.1675C9.03549 16.6358 8.93838 16.08 8.93838 15.5C8.93838 14.1225 9.44236 12.932 10.4503 11.9286C11.4583 10.9252 12.6532 10.424 14.035 10.425C15.4187 10.425 16.6146 10.9267 17.6225 11.9301C18.6305 12.9335 19.134 14.1235 19.133 15.5C19.133 16.08 19.0296 16.6479 18.8227 17.2037C18.6159 17.7596 18.3309 18.255 17.9677 18.69L20.2254 23.6925C20.4439 23.4992 20.6566 23.3242 20.8634 23.1676C21.0703 23.011 21.2703 22.8235 21.4635 22.605C21.3421 22.4117 21.263 22.2004 21.2261 21.9713C21.1892 21.7422 21.1717 21.5185 21.1737 21.3C21.1737 20.5267 21.4407 19.8621 21.9748 19.3062C22.5089 18.7504 23.1643 18.4483 23.9412 18.4C24.0868 17.9167 24.1961 17.4391 24.2689 16.9674C24.3417 16.4957 24.3782 16.0065 24.3782 15.5C24.3782 14.9925 24.3417 14.4908 24.2689 13.9949C24.1961 13.499 24.0868 13.0099 23.9412 12.5275C23.1643 12.4792 22.5089 12.1771 21.9748 11.6212C21.4407 11.0654 21.1737 10.4008 21.1737 9.6275C21.1737 9.41 21.2043 9.19878 21.2654 8.99385C21.3266 8.78892 21.3931 8.5893 21.465 8.395C20.761 7.69417 19.9841 7.10208 19.1345 6.61875C18.2848 6.13542 17.3866 5.76083 16.4398 5.495C16.1727 5.90583 15.8329 6.22628 15.4202 6.45635C15.0075 6.68642 14.5462 6.80097 14.0364 6.8C13.5266 6.8 13.0654 6.68497 12.6527 6.4549C12.24 6.22483 11.9001 5.90487 11.6331 5.495C10.6377 5.76083 9.71522 6.1417 8.86555 6.6376C8.01588 7.1335 7.23903 7.74347 6.53502 8.4675C6.60785 8.66083 6.67485 8.86045 6.73603 9.06635C6.7972 9.27225 6.82731 9.48347 6.82634 9.7C6.82634 10.4733 6.57143 11.1321 6.06163 11.6763C5.55183 12.2206 4.9085 12.5285 4.13166 12.6C3.986 13.0833 3.87676 13.5609 3.80393 14.0326C3.7311 14.5043 3.69468 14.9935 3.69468 15.5C3.69468 16.0075 3.7311 16.4966 3.80393 16.9674C3.87676 17.4382 3.986 17.9157 4.13166 18.4C4.9085 18.4483 5.55183 18.7504 6.06163 19.3062C6.57143 19.8621 6.82634 20.5267 6.82634 21.3C6.82634 21.5175 6.80837 21.7292 6.77244 21.9351C6.73651 22.141 6.65737 22.3401 6.53502 22.5325C6.72923 22.75 6.92975 22.9496 7.13659 23.1313C7.34342 23.3131 7.5556 23.5001 7.77311 23.6925ZM9.95799 24.925C10.225 25.0458 10.4984 25.1546 10.778 25.2512C11.0577 25.3479 11.3427 25.4325 11.6331 25.505C11.9001 25.0942 12.24 24.7742 12.6527 24.5451C13.0654 24.316 13.5266 24.201 14.0364 24.2C14.5462 24.2 15.0075 24.315 15.4202 24.5451C15.8329 24.7752 16.1727 25.0951 16.4398 25.505C16.7311 25.4325 17.004 25.3479 17.2584 25.2512C17.5128 25.1546 17.774 25.0458 18.042 24.925L15.93 20.2125C15.6387 20.3333 15.3352 20.4242 15.0196 20.4851C14.704 20.546 14.3763 20.576 14.0364 20.575C13.6723 20.575 13.3261 20.5387 12.9979 20.4662C12.6697 20.3937 12.3604 20.285 12.07 20.14L9.95799 24.925ZM14.0364 17.675C14.6191 17.675 15.1289 17.4696 15.5658 17.0587C16.0028 16.6479 16.2213 16.1283 16.2213 15.5C16.2213 14.92 16.0028 14.4125 15.5658 13.9775C15.1289 13.5425 14.6191 13.325 14.0364 13.325C13.4052 13.325 12.8833 13.5425 12.4706 13.9775C12.0579 14.4125 11.8515 14.92 11.8515 15.5C11.8515 16.1283 12.0579 16.6479 12.4706 17.0587C12.8833 17.4696 13.4052 17.675 14.0364 17.675Z" stroke="#171717" stroke-width="0.4" mask="url(#path-1-outside-1_1_796)"/>
</svg>
