<svg width="6" height="16" viewBox="0 0 6 16" fill="none" xmlns="http://www.w3.org/2000/svg">
<path d="M5 4H1C0.5 4 0 4.5 0 5V9C0 9.5 0.5 10 1 10V16H5V10C5.5 10 6 9.5 6 9V5C6 4.5 5.5 4 5 4Z" fill="#3275CC"/>
<path d="M4.86052 2.73381C4.95826 2.48598 5.00551 2.22112 4.99949 1.95478C4.98767 1.43223 4.77175 0.935063 4.39796 0.569715C4.02416 0.204366 3.52219 -0.000130642 2.9995 0C2.47681 0.000130768 1.97494 0.204879 1.60133 0.570414C1.22771 0.93595 1.01204 1.43322 1.00049 1.95578C0.994599 2.22213 1.04198 2.48696 1.13985 2.73474C1.23772 2.98252 1.38411 3.20825 1.57041 3.39867C1.75672 3.5891 1.9792 3.74038 2.22478 3.84365C2.47036 3.94691 2.73409 4.00007 3.0005 4C3.26691 3.99993 3.53062 3.94664 3.77614 3.84326C4.02167 3.73987 4.24407 3.58848 4.43029 3.39796C4.6165 3.20744 4.76277 2.98164 4.86052 2.73381Z" fill="#3275CC"/>
</svg>
