<svg width="24" height="24" viewBox="0 0 24 24" fill="none" xmlns="http://www.w3.org/2000/svg">
<path d="M3 21C2.71667 21 2.479 20.904 2.287 20.712C2.095 20.52 1.99934 20.2827 2 20V10C2 9.71667 2.096 9.479 2.288 9.287C2.48 9.095 2.71734 8.99934 3 9H6.5C6.78334 9 7.021 9.096 7.213 9.288C7.405 9.48 7.50067 9.71734 7.5 10V20C7.5 20.2833 7.404 20.521 7.212 20.713C7.02 20.905 6.78267 21.0007 6.5 21H3ZM10.25 21C9.96667 21 9.729 20.904 9.537 20.712C9.345 20.52 9.24934 20.2827 9.25 20V4C9.25 3.71667 9.346 3.479 9.538 3.287C9.73 3.095 9.96734 2.99934 10.25 3H13.75C14.0333 3 14.271 3.096 14.463 3.288C14.655 3.48 14.7507 3.71734 14.75 4V20C14.75 20.2833 14.654 20.521 14.462 20.713C14.27 20.905 14.0327 21.0007 13.75 21H10.25ZM17.5 21C17.2167 21 16.979 20.904 16.787 20.712C16.595 20.52 16.4993 20.2827 16.5 20V12C16.5 11.7167 16.596 11.479 16.788 11.287C16.98 11.095 17.2173 10.9993 17.5 11H21C21.2833 11 21.521 11.096 21.713 11.288C21.905 11.48 22.0007 11.7173 22 12V20C22 20.2833 21.904 20.521 21.712 20.713C21.52 20.905 21.2827 21.0007 21 21H17.5Z" fill="white"/>
</svg>
