<svg width="20" height="21" viewBox="0 0 20 21" fill="none" xmlns="http://www.w3.org/2000/svg">
<path d="M6.18085 11.9303L6.25072 12.0403L6.15158 12.1248C6.0922 12.1755 6.03743 12.2272 5.97905 12.2823C5.95941 12.3009 5.93936 12.3198 5.91859 12.3392C5.83869 12.4139 5.75174 12.492 5.64929 12.5672C5.37027 12.7955 4.99582 13.0793 4.52619 13.4045C4.38424 13.507 4.2583 13.5974 4.14792 13.6765C3.88993 13.8616 3.71701 13.9856 3.62371 14.062L3.62378 14.0621L3.6191 14.0656C3.0425 14.5012 2.62119 14.8634 2.33869 15.1526C1.90255 15.599 1.52216 16.0581 1.19675 16.5438L1.19677 16.5438L1.19514 16.5462C0.8564 17.0316 0.59959 17.502 0.396923 17.9857C0.209312 18.4663 0.120306 18.9077 0.158836 19.3283L0.158905 19.3283L0.159182 19.3329C0.18469 19.7506 0.336279 20.0975 0.613585 20.3814C0.89077 20.6651 1.22835 20.8191 1.63374 20.845L1.63404 20.8451C2.03509 20.8715 2.47982 20.7923 2.92871 20.5896L2.92867 20.5895L2.93361 20.5875C3.40296 20.3954 3.8749 20.1197 4.33553 19.7731L4.33548 19.773L4.33956 19.7701C4.81392 19.4372 5.26237 19.0479 5.69853 18.6015C5.98104 18.3124 6.3349 17.8811 6.74646 17.3054L6.74642 17.3054L6.74857 17.3025C6.83771 17.1839 6.9558 17.0118 7.1132 16.7824C7.19535 16.6626 7.28821 16.5273 7.39324 16.3758C7.69748 15.9228 7.94714 15.5679 8.16965 15.269L8.16962 15.2689L8.17179 15.2662C8.39463 14.981 8.57775 14.7646 8.78992 14.5474L8.8687 14.4668L8.96807 14.52C10.3719 15.2724 11.9734 15.5464 13.5396 15.3025C15.1057 15.0586 16.5554 14.3093 17.6775 13.1632C20.5743 10.1842 20.5739 5.3473 17.6777 2.38283L17.6776 2.38277C16.9867 1.67472 16.1663 1.1132 15.2636 0.730154C14.3609 0.347111 13.3934 0.15 12.4164 0.15C11.4394 0.15 10.4719 0.347111 9.56923 0.730154C8.66652 1.1132 7.84619 1.67472 7.15525 2.38277C5.94938 3.61853 5.19416 5.24119 5.01668 6.97951C4.83921 8.71785 5.25035 10.4656 6.18085 11.9303ZM8.88637 11.3667L8.88614 11.3665C7.95706 10.4086 7.43627 9.11423 7.43627 7.76589C7.43627 6.41756 7.95706 5.12323 8.88614 4.16532L8.88637 4.16509C9.34822 3.69096 9.89713 3.31459 10.5017 3.05771C11.1064 2.80084 11.7547 2.66856 12.4095 2.66856C13.0644 2.66856 13.7127 2.80084 14.3173 3.05771C14.9219 3.31456 15.4707 3.69089 15.9326 4.16496C16.3957 4.63763 16.763 5.19901 17.0135 5.81684C17.2641 6.43474 17.393 7.09707 17.393 7.76589C17.393 8.43471 17.2641 9.09704 17.0135 9.71494C16.763 10.3328 16.3957 10.8942 15.9325 11.3669C15.4707 11.8409 14.9219 12.2172 14.3173 12.4741C13.7127 12.7309 13.0644 12.8632 12.4095 12.8632C11.7547 12.8632 11.1064 12.7309 10.5017 12.4741C9.89713 12.2172 9.34822 11.8408 8.88637 11.3667Z" fill="#3275CC" stroke="white" stroke-width="0.3"/>
</svg>
